<?xml version="1.0" encoding="utf-8"?>
<!-- Generator: Adobe Illustrator 17.0.0, SVG Export Plug-In . SVG Version: 6.00 Build 0)  -->
<!DOCTYPE svg PUBLIC "-//W3C//DTD SVG 1.1//EN" "http://www.w3.org/Graphics/SVG/1.1/DTD/svg11.dtd">
<svg version="1.1" xmlns="http://www.w3.org/2000/svg" xmlns:xlink="http://www.w3.org/1999/xlink" x="0px" y="0px" width="96px"
	 height="96px" viewBox="0 0 96 96" enable-background="new 0 0 96 96" xml:space="preserve">
<g id="Base" display="none">
</g>
<g id="Dibujo">
	<path d="M78.485,31.061l-24.001-6c-0.028-0.007-0.058-0.005-0.086-0.011c-0.089-0.018-0.179-0.029-0.27-0.035
		c-0.05-0.004-0.099-0.008-0.149-0.008c-0.102,0.002-0.203,0.014-0.304,0.03c-0.038,0.006-0.076,0.008-0.112,0.017
		c-0.131,0.029-0.26,0.07-0.385,0.127c-0.007,0.004-0.014,0.005-0.021,0.008c-0.124,0.058-0.244,0.128-0.357,0.213l-8.8,6.6v-6.424
		c1.763-0.774,3-2.531,3-4.576c0-2.757-2.243-5-5-5s-5,2.243-5,5c0,2.045,1.237,3.803,3,4.576v50.424H18c-1.104,0-2,0.896-2,2
		s0.896,2,2,2h48c1.104,0,2-0.896,2-2s-0.896-2-2-2H44v-36l8.8,6.6c0.108,0.081,0.229,0.125,0.346,0.181
		c0.074,0.035,0.14,0.088,0.218,0.114c0.207,0.069,0.421,0.105,0.635,0.105c0,0,0,0,0.001,0h0c0.006,0,0.012-0.002,0.019-0.002
		c0.151-0.002,0.301-0.021,0.448-0.056c0.006-0.001,0.012-0.001,0.018-0.002l24.001-6c0.89-0.223,1.515-1.022,1.515-1.94v-6
		C80,32.083,79.375,31.283,78.485,31.061z M52,41.001l-6.667-5l6.667-5V41.001z M42,20.001c0.551,0,1,0.448,1,1s-0.449,1-1,1
		s-1-0.448-1-1S41.449,20.001,42,20.001z M56,29.562l8,2v8.877l-8,2V29.562z M76,37.439l-8,2v-6.877l8,2V37.439z"/>
</g>
</svg>
